<?xml version="1.0" encoding="UTF-8" standalone="no"?>
<!-- Created with Inkscape (http://www.inkscape.org/) -->

<svg
   width="146.7991mm"
   height="86.738098mm"
   viewBox="0 0 146.7991 86.738098"
   version="1.1"
   id="svg1"
   xml:space="preserve"
   inkscape:version="1.4 (86a8ad7, 2024-10-11)"
   sodipodi:docname="HEMLE MERCH.svg"
   xmlns:inkscape="http://www.inkscape.org/namespaces/inkscape"
   xmlns:sodipodi="http://sodipodi.sourceforge.net/DTD/sodipodi-0.dtd"
   xmlns="http://www.w3.org/2000/svg"
   xmlns:svg="http://www.w3.org/2000/svg"><sodipodi:namedview
     id="namedview1"
     pagecolor="#ffffff"
     bordercolor="#000000"
     borderopacity="0.25"
     inkscape:showpageshadow="2"
     inkscape:pageopacity="0.0"
     inkscape:pagecheckerboard="0"
     inkscape:deskcolor="#d1d1d1"
     inkscape:document-units="mm"
     inkscape:zoom="0.89157384"
     inkscape:cx="-1106.4703"
     inkscape:cy="-91.972191"
     inkscape:window-width="3360"
     inkscape:window-height="1766"
     inkscape:window-x="7296"
     inkscape:window-y="-12"
     inkscape:window-maximized="1"
     inkscape:current-layer="layer1"><inkscape:page
       x="0"
       y="0"
       width="146.7991"
       height="86.738098"
       id="page2"
       margin="0"
       bleed="0" /></sodipodi:namedview><defs
     id="defs1" /><g
     inkscape:label="Calque 1"
     inkscape:groupmode="layer"
     id="layer1"
     transform="translate(308.06491,-132.5931)"><path
       style="fill:#000000;stroke:none;stroke-width:0.941989;stroke-opacity:1"
       d="m -306.37632,218.95247 c -0.37352,-0.2027 -0.79411,-0.58338 -0.93463,-0.84596 -0.16855,-0.31494 -0.2555,-7.43308 -0.2555,-20.91712 v -20.43971 l 0.60108,-0.6993 0.60107,-0.69929 4.57509,-0.0813 c 5.32007,-0.0945 5.20439,-0.13688 6.83688,2.50226 l 0.96916,1.5668 0.12462,4.73545 0.12461,4.73545 4.4117,0.068 4.41169,0.068 0.0745,-6.23009 c 0.0958,-8.00396 -0.41959,-7.32426 5.64805,-7.44939 4.75087,-0.098 5.66038,0.0764 6.26198,1.20048 0.17719,0.3311 0.23953,7.08316 0.19431,21.05088 l -0.0666,20.56344 -0.5677,0.56763 c -0.55182,0.55176 -0.7032,0.56763 -5.41393,0.56763 -6.42988,0 -5.95554,0.45902 -6.05904,-5.86333 l -0.0774,-4.72913 h -4.47112 -4.47111 v 4.37398 c 0,4.78333 -0.19816,5.64803 -1.39895,6.10457 -0.34506,0.13119 -2.83515,0.23404 -5.53353,0.22855 -3.84271,-0.008 -5.05336,-0.0899 -5.58529,-0.37853 z m 9.25615,-4.57758 c 0.28758,-0.18204 0.36315,-1.51348 0.41148,-7.24915 0.0326,-3.86438 0.15442,-7.1192 0.2708,-7.23293 0.26739,-0.26128 11.83627,-0.40302 12.24563,-0.15002 0.22662,0.14006 0.30308,2.00037 0.30308,7.37374 0,6.32316 0.0474,7.2046 0.39424,7.33771 0.77836,0.29869 9.20964,0.16787 9.5253,-0.14779 0.22724,-0.22726 0.29908,-4.7434 0.29908,-18.80308 v -18.50399 l -0.55393,-0.38798 c -0.78522,-0.55 -8.29844,-0.56898 -9.07802,-0.0229 -0.28665,0.20077 -0.56396,0.32211 -0.61624,0.26963 -0.0523,-0.0525 -0.0632,2.71125 -0.0243,6.14162 0.0505,4.44759 -0.012,6.3367 -0.21744,6.58433 -0.23071,0.27799 -1.40411,0.34726 -5.88185,0.34726 -3.37922,0 -5.78449,-0.10214 -6.07572,-0.258 -0.45681,-0.24448 -0.4821,-0.58337 -0.4821,-6.4623 0,-5.30795 -0.0566,-6.26087 -0.39165,-6.59594 -0.57391,-0.57392 -8.20523,-0.57702 -9.02379,-0.004 l -0.55393,0.38799 v 18.50399 c 0,14.05968 0.0719,18.57581 0.29908,18.80307 0.35868,0.35867 8.59445,0.42029 9.15026,0.0685 z m 27.81121,4.73328 c -0.27415,-0.11376 -0.72277,-0.45611 -0.99693,-0.7608 -0.48877,-0.5432 -0.49977,-0.95306 -0.565,-21.0569 -0.0748,-23.05973 -0.21633,-21.35535 1.81117,-21.81725 1.11888,-0.25489 30.23624,-0.34313 31.47502,-0.0954 0.43657,0.0873 1.07575,0.44073 1.42039,0.78538 l 0.62663,0.62663 v 20.51395 20.51396 l -0.60142,0.6993 -0.60142,0.69929 -16.03498,0.0493 c -8.81925,0.0271 -16.2593,-0.0437 -16.53346,-0.15751 z m 32.24671,-4.97195 c 0.45035,-0.45036 0.4707,-1.204 0.5041,-18.67006 l 0.0348,-18.20076 -0.6492,-0.51066 c -0.6379,-0.50177 -0.9162,-0.51094 -15.96438,-0.52563 -15.37774,-0.0151 -16.05531,0.0193 -16.60438,0.84163 -0.1007,0.15082 -0.18482,8.48326 -0.18693,18.51652 l -0.004,18.24229 0.55392,0.38799 c 0.48707,0.34115 2.44249,0.38799 16.20025,0.38799 14.98985,0 15.666,-0.0197 16.11562,-0.46931 z m -22.73426,-8.91853 c -0.0914,-0.0914 -0.16616,-4.40543 -0.16616,-9.58675 0,-9.0588 0.0186,-9.43051 0.48209,-9.67862 0.29222,-0.15638 2.73918,-0.258 6.21306,-0.258 4.87766,0 5.78929,0.0583 6.12263,0.39165 0.34154,0.34155 0.39165,1.53952 0.39165,9.36268 0,5.70733 -0.0938,9.14641 -0.258,9.45311 -0.24443,0.45673 -0.58311,0.48208 -6.43855,0.48208 -3.39931,0 -6.25533,-0.0748 -6.34672,-0.16615 z m 11.7971,-5.56623 V 194.916 h -4.86007 -4.86008 v 4.73546 4.73545 h 4.86008 4.86007 z m 15.54152,19.44515 c -1.26277,-0.51613 -1.33516,-0.91723 -1.33516,-7.39884 0,-5.94829 0.008,-6.04672 0.57596,-6.70648 l 0.57596,-0.66958 6.21568,-0.008 c 3.41863,-0.005 6.32785,0.0236 6.46492,0.0621 0.13708,0.0385 2.02314,0.0568 4.19123,0.0405 l 3.94201,-0.0295 -0.0788,-0.68539 -0.0788,-0.6854 -10.09404,-0.12465 c -5.5517,-0.0686 -10.29442,-0.22233 -10.53937,-0.34174 -1.14468,-0.55805 -1.17466,-0.90551 -1.17466,-13.6194 0,-8.11362 0.0871,-12.15475 0.2693,-12.4952 0.63595,-1.18827 0.9308,-1.20878 17.35605,-1.20729 9.49702,8.6e-4 15.7421,0.0969 16.2955,0.25062 1.78202,0.49502 1.80572,0.61583 1.74414,8.88955 -0.0196,2.63025 -0.10247,3.36257 -0.4161,3.67621 -0.34345,0.34344 -1.66265,0.39166 -10.71709,0.39166 h -10.32543 v 0.7477 0.7477 h 9.98856 9.98855 l 0.72853,0.72853 0.72853,0.72853 v 13.21471 13.21469 l -0.60142,0.6993 -0.60141,0.69929 -16.28423,0.0493 c -8.95631,0.0271 -16.52456,-0.049 -16.81832,-0.16903 z m 32.82635,-4.74909 c 0.46565,-0.2492 0.4821,-0.63989 0.4821,-11.45066 v -11.19264 l -0.55393,-0.38799 c -0.48128,-0.3371 -2.01411,-0.38798 -11.68736,-0.38798 -9.92231,0 -11.14988,-0.0429 -11.28471,-0.39423 -0.27804,-0.72456 -0.16397,-4.22885 0.1478,-4.54062 0.2235,-0.22349 3.05367,-0.29908 11.19933,-0.29908 6.47922,0 11.15954,-0.0986 11.53955,-0.24306 l 0.63932,-0.24307 v -3.94628 c 0,-3.01433 -0.0836,-4.06054 -0.35368,-4.43008 -0.34282,-0.46894 -0.83843,-0.48569 -16.13794,-0.5454 -12.41248,-0.0484 -15.91735,0.007 -16.40734,0.25668 l -0.62309,0.31829 -0.0508,11.75236 -0.0508,11.75237 9.5217,0.0407 c 11.81931,0.0506 13.4348,0.0889 13.82286,0.3288 0.44816,0.27697 0.42185,3.99561 -0.0309,4.37139 -0.24323,0.20186 -3.52923,0.27952 -11.49169,0.27157 -8.08146,-0.008 -11.24659,0.0681 -11.49802,0.27681 -0.26921,0.22342 -0.34694,1.15618 -0.34694,4.16323 0,3.25626 0.0659,3.94811 0.41248,4.33109 0.39141,0.4325 1.22624,0.45579 16.34124,0.45579 10.50349,0 16.09297,-0.0879 16.41085,-0.25801 z m 16.01003,4.69511 c -1.27888,-0.61789 -1.32157,-1.03414 -1.32157,-12.88644 v -10.99095 l -4.79776,-9.4e-4 c -4.32984,-8.3e-4 -4.87611,-0.0487 -5.6011,-0.49073 -0.44182,-0.2694 -0.86718,-0.74564 -0.94524,-1.05832 -0.0781,-0.31268 -0.10911,-4.3077 -0.069,-8.87783 0.0729,-8.30341 0.0733,-8.30965 0.64017,-8.76839 0.31198,-0.25249 1.15314,-0.52885 1.86925,-0.61412 0.71611,-0.0853 8.00082,-0.12104 16.18824,-0.0794 l 14.88621,0.0756 0.69094,0.69101 0.69094,0.69103 0.0474,7.14111 c 0.052,7.83486 -0.10727,10.0864 -0.75982,10.74027 -0.35409,0.35481 -1.09457,0.44694 -4.42567,0.55071 l -4.00045,0.12462 -0.10421,11.09094 c -0.0574,6.10001 -0.16178,11.34124 -0.23212,11.64718 -0.26336,1.14535 -1.16314,1.31437 -6.89994,1.29615 -3.19852,-0.0102 -5.52631,-0.12205 -5.8563,-0.28148 z m 9.36288,-4.77164 c 0.19499,-0.23495 0.29682,-4.4827 0.34206,-14.26868 l 0.0644,-13.93413 5.38329,-0.12463 c 4.04915,-0.0937 5.48526,-0.20938 5.7947,-0.46667 0.3506,-0.2915 0.41141,-0.92424 0.41141,-4.2812 v -3.93915 l -0.66116,-0.52007 c -0.65448,-0.51481 -0.8169,-0.51996 -16.08293,-0.50925 -15.00551,0.0105 -15.43502,0.0241 -15.91293,0.50197 -0.44766,0.44766 -0.49117,0.84317 -0.49117,4.46479 0,3.82368 0.0209,3.98826 0.55393,4.36161 0.457,0.32009 1.43563,0.38797 5.59307,0.38797 3.28541,0 5.09604,0.092 5.20266,0.26459 0.09,0.14552 0.20143,6.48124 0.24777,14.07939 0.0463,7.59814 0.15423,13.92802 0.23975,14.0664 0.25296,0.40931 8.97101,0.33168 9.31512,-0.083 z m -21.40154,-31.17892 c 0,-0.0605 -0.11215,-0.17922 -0.24923,-0.26395 -0.13708,-0.0847 -0.24923,-0.0352 -0.24923,0.10992 0,0.14517 0.11215,0.26394 0.24923,0.26394 0.13708,0 0.24923,-0.0495 0.24923,-0.10991 z m -107.96485,-9.05679 -3.16174,-0.0696 -0.63909,-0.7595 c -0.639,-0.75943 -0.63907,-0.75997 -0.63907,-5.71117 0,-4.87527 0.009,-4.96245 0.60158,-5.65096 l 0.60158,-0.6993 9.79769,-0.0435 c 5.38873,-0.0239 9.83006,-0.14061 9.86962,-0.25931 0.0396,-0.1187 -0.0698,-0.40586 -0.24295,-0.63814 -0.28447,-0.3815 -1.20634,-0.42872 -9.53658,-0.48839 -7.11899,-0.051 -9.35436,-0.14168 -9.80356,-0.39767 -1.24554,-0.70982 -1.28738,-1.14893 -1.28738,-13.5093 0,-11.76375 0.0297,-12.1555 0.97534,-12.88157 0.54674,-0.41978 32.34818,-0.45601 33.26583,-0.0379 1.05545,0.4809 1.18651,1.25678 1.10298,6.52965 -0.0745,4.70467 -0.099,4.91164 -0.64493,5.45724 l -0.56747,0.56712 -9.68656,0.0707 -9.68656,0.0707 -0.14811,0.55247 c -0.30056,1.12114 -0.21772,1.20438 1.15357,1.15899 0.71966,-0.0238 5.10235,-0.0299 9.73931,-0.0134 l 8.43084,0.03 0.72853,0.72853 0.72852,0.72854 v 11.85388 11.85387 l -0.7276,0.81394 -0.7276,0.81395 h -13.16722 c -7.24197,0 -14.59001,-0.0314 -16.32897,-0.0696 z m 4.28331,-0.41412 c 0,-0.0605 -0.11215,-0.17923 -0.24924,-0.26395 -0.13708,-0.0847 -0.24923,-0.0352 -0.24923,0.10991 0,0.14517 0.11215,0.26395 0.24923,0.26395 0.13709,0 0.24924,-0.0495 0.24924,-0.10991 z m 23.47789,-1.43535 c -0.23262,-0.23261 -0.36555,-0.23261 -0.59816,0 -0.23263,0.23262 -0.16616,0.29908 0.29908,0.29908 0.46524,0 0.53169,-0.0665 0.29908,-0.29908 z m 0.74236,-0.6791 c 1.48069,-0.0416 1.45125,0.1886 1.44723,-11.31442 -0.003,-7.96882 -0.0799,-10.66311 -0.31858,-11.13544 l -0.31492,-0.62308 -11.08389,-0.12462 c -6.09615,-0.0686 -11.22409,-0.21536 -11.39544,-0.32626 -0.46659,-0.30198 -0.42716,-4.50144 0.046,-4.89409 0.26692,-0.22152 3.17816,-0.28288 11.48916,-0.24216 9.31635,0.0457 11.1677,-0.002 11.3527,-0.2946 0.12158,-0.19202 0.22277,-2.03455 0.22487,-4.09451 0.003,-2.99102 -0.0743,-3.85693 -0.38417,-4.29929 l -0.38797,-0.55393 h -15.85495 c -14.40343,0 -15.89667,0.0378 -16.31073,0.41248 -0.42828,0.3876 -0.45579,1.0684 -0.45579,11.28471 0,9.43684 0.0512,10.94537 0.38799,11.42616 l 0.38799,0.55393 h 10.90234 c 8.14728,0 10.97791,0.0756 11.20141,0.29908 0.18127,0.18126 0.29908,1.06145 0.29908,2.23434 0,1.65826 -0.0691,1.9722 -0.48208,2.19326 -0.31109,0.1665 -4.32256,0.25801 -11.30965,0.25801 -8.91329,0 -10.87814,0.061 -11.11364,0.34469 -0.19608,0.23628 -0.26448,1.62548 -0.21744,4.41684 0.0645,3.83122 0.0991,4.08733 0.58359,4.32847 0.39956,0.19886 25.31948,0.31861 31.30694,0.15043 z m -13.7524,-13.62886 c 0,-0.20628 -0.48395,-0.32292 -0.5949,-0.1434 -0.072,0.11647 0.0324,0.21176 0.23201,0.21176 0.19959,0 0.36289,-0.0308 0.36289,-0.0684 z m -18.66166,-7.39206 c -0.24615,-0.24431 -0.27478,-0.21568 -0.13952,0.13953 0.0936,0.24579 0.23295,0.38412 0.30969,0.30739 0.0768,-0.0768 1.6e-4,-0.27785 -0.17017,-0.44692 z m 39.88601,23.5053 c -2.05908,-0.11975 -2.3833,-0.20344 -2.80389,-0.72379 -0.54968,-0.68007 -0.50652,1.02466 -0.51824,-20.47193 -0.0112,-20.61055 -0.07,-18.8518 0.65442,-19.57624 l 0.61175,-0.61175 h 16.35537 16.35536 l 0.72852,0.72853 0.72854,0.72853 v 19.09799 c 0,20.64328 0.0231,20.27646 -1.30575,20.72242 -0.87262,0.29284 -10.48987,0.11745 -10.68288,-0.19482 -0.10932,-0.1769 -0.19418,-0.17991 -0.256,-0.009 -0.10405,0.28748 -15.99205,0.5355 -19.8672,0.31014 z m 12.3548,-0.4106 c -0.0828,-0.0828 -0.29778,-0.0916 -0.4777,-0.0197 -0.19882,0.0796 -0.13976,0.13862 0.15058,0.15058 0.26274,0.0108 0.40994,-0.048 0.32712,-0.1309 z m 18.23616,-2.4433 c 0.52511,-0.47526 0.52525,-0.48017 0.51557,-18.4631 -0.008,-15.68274 -0.0582,-18.05704 -0.38865,-18.52874 l -0.37896,-0.54104 h -15.85494 c -14.40343,0 -15.89667,0.0378 -16.31072,0.41248 -0.43366,0.39245 -0.45579,1.29869 -0.45579,18.66208 0,19.27074 -0.0402,18.59451 1.12156,18.8764 0.27415,0.0665 7.41231,0.10663 15.86257,0.0891 14.74144,-0.0305 15.38539,-0.0511 15.88936,-0.50721 z m -22.73796,-9.03706 c -0.20761,-0.20762 -0.22189,-18.3404 -0.0149,-18.8799 0.1323,-0.34477 0.92359,-0.39424 6.30563,-0.39424 4.45441,0 6.23696,0.0826 6.45343,0.29909 0.39159,0.39157 0.4302,17.93204 0.0411,18.65911 -0.24443,0.45674 -0.58311,0.48209 -6.43855,0.48209 -3.39931,0 -6.25533,-0.0748 -6.34672,-0.16615 z m 11.8865,-4.56931 c -0.0194,-1.98764 -0.0474,-4.15485 -0.0623,-4.81604 l -0.0271,-1.20214 -4.12858,0.0638 c -2.27071,0.0351 -4.45774,0.11213 -4.86007,0.17119 l -0.7315,0.10735 v 4.71244 4.71244 l 4.92239,-0.0675 4.92238,-0.0675 z m 12.1231,-0.99693 c 0,-0.13708 -0.11216,-0.24923 -0.24925,-0.24923 -0.13707,0 -0.24923,0.11215 -0.24923,0.24923 0,0.13708 0.11216,0.24923 0.24923,0.24923 0.13709,0 0.24925,-0.11215 0.24925,-0.24923 z m -0.21831,-7.79274 c -0.24615,-0.24431 -0.27478,-0.21568 -0.13953,0.13952 0.0936,0.24581 0.23297,0.38413 0.3097,0.30739 0.0768,-0.0768 1.6e-4,-0.27784 -0.17017,-0.44691 z m 4.42403,25.29871 c -0.56423,-0.0537 -1.12585,-0.32251 -1.49541,-0.71584 l -0.59182,-0.62989 -0.0668,-19.42714 -0.0668,-19.42714 0.61624,-0.61623 c 0.61307,-0.61309 0.64099,-0.61624 5.44419,-0.61624 5.60359,0 5.21425,-0.16837 6.75736,2.92228 0.87022,1.74295 0.89907,1.88936 0.89907,4.56335 v 2.76263 l 2.30541,-2.21961 c 3.39065,-3.26443 4.25749,-3.98066 4.67315,-3.86118 0.27075,0.0778 0.2893,0.0475 0.0673,-0.11006 -0.21925,-0.15557 0.1712,-0.68544 1.37079,-1.86024 0.92254,-0.9035 1.92232,-1.76747 2.22174,-1.91995 0.34299,-0.17466 2.29719,-0.27722 5.28233,-0.27722 4.64775,0 4.75126,0.0114 5.43723,0.60094 l 0.6993,0.60095 0.0834,4.32143 c 0.0459,2.3768 0.006,5.3861 -0.0901,6.68735 l -0.17348,2.36592 -2.14246,2.18942 c -1.25542,1.28293 -2.28118,2.13618 -2.4775,2.06084 -0.19655,-0.0755 -0.26622,-0.0172 -0.16857,0.1408 0.17624,0.28515 -1.59692,1.89168 -1.95905,1.77495 -0.11684,-0.0377 -0.15352,0.0268 -0.0815,0.14339 0.0721,0.11654 -0.64767,0.98455 -1.59934,1.92891 l -1.73029,1.71703 4.85314,4.86891 c 2.66922,2.67789 5.03648,5.13068 5.26058,5.45064 0.32675,0.46652 0.38742,1.03932 0.30638,2.89231 -0.1406,3.21467 -0.37812,3.53269 -2.80861,3.76044 -1.0299,0.0965 -4.15761,0.13239 -6.95049,0.0798 l -5.07794,-0.0958 -0.97142,-0.73518 c -0.53429,-0.40435 -2.06495,-1.79309 -3.40148,-3.08611 l -2.43004,-2.35093 -0.0312,1.53305 c -0.0172,0.84319 -0.0592,1.64521 -0.0935,1.78229 -0.0343,0.13708 -0.0763,0.57328 -0.0934,0.96933 -0.0171,0.39605 -0.23944,0.97732 -0.49402,1.29172 -0.45309,0.55954 -0.56778,0.57221 -5.42085,0.59883 -2.72689,0.015 -5.36459,-0.0115 -5.86156,-0.0588 z m 31.68404,-0.80726 c 0,-0.13708 -0.11877,-0.24924 -0.26394,-0.24924 -0.14517,0 -0.19463,0.11216 -0.10991,0.24924 0.0847,0.13707 0.20349,0.24924 0.26394,0.24924 0.0605,0 0.10991,-0.11217 0.10991,-0.24924 z m -23.38042,-1.94114 c 0.23348,-0.23396 0.32425,-1.41775 0.33446,-4.36161 0.0248,-7.14101 0.0899,-8.40758 0.43936,-8.54167 0.18707,-0.0718 3.10262,2.66688 6.92906,6.50864 l 6.6061,6.63257 4.69425,0.0227 c 5.52604,0.0267 5.4466,0.0636 5.32382,-2.46976 -0.0409,-0.84331 -0.14723,-1.48851 -0.23636,-1.43376 -0.16781,0.10308 -14.87966,-14.86693 -15.25043,-15.51805 -0.25208,-0.44269 0.33331,-1.0307 8.99469,-9.03474 l 6.29318,-5.81557 v -1.57994 c 0,-1.30696 -0.0833,-1.62452 -0.4821,-1.83795 -0.27942,-0.14954 -2.30839,-0.258 -4.82645,-0.258 -3.94288,0 -4.40198,0.0453 -4.9677,0.49031 -0.34283,0.26967 -0.7124,0.40986 -0.82128,0.31154 -0.10887,-0.0983 -0.12468,-0.0506 -0.0351,0.10613 0.21076,0.36879 -4.26237,4.64015 -4.62478,4.41617 -0.14923,-0.0922 -0.19984,-0.0528 -0.11285,0.088 0.19572,0.31668 -7.25376,7.36208 -7.57464,7.16377 -0.13293,-0.0821 -0.23235,-2.63605 -0.23235,-5.9681 0,-4.96268 -0.0579,-5.88245 -0.39166,-6.21615 -0.32439,-0.32439 -1.09768,-0.39166 -4.50261,-0.39166 -2.35715,0 -4.31661,0.11007 -4.59303,0.258 -0.46995,0.25151 -0.48208,0.72178 -0.48208,18.67846 v 18.42046 l 0.56077,0.39945 c 0.47037,0.33506 1.21189,0.38758 4.59905,0.32568 2.87899,-0.0527 4.13026,-0.16597 4.35871,-0.3949 z m -9.76777,-20.98843 c 0,-0.13709 -0.11215,-0.24924 -0.24923,-0.24924 -0.13708,0 -0.24923,0.11215 -0.24923,0.24924 0,0.13708 0.11215,0.24923 0.24923,0.24923 0.13708,0 0.24923,-0.11215 0.24923,-0.24923 z m 38.52994,23.67727 c -0.39589,-0.0687 -0.95376,-0.44046 -1.24304,-0.82837 -0.52303,-0.70135 -0.52481,-0.76946 -0.52481,-20.02268 v -19.31894 l 0.69929,-0.60146 0.69929,-0.60147 h 16.08091 16.08089 l 0.72854,0.72853 0.72852,0.72853 v 19.2063 19.20629 l -0.72775,0.81394 -0.72775,0.81394 h -15.53793 c -8.54586,0 -15.86113,-0.056 -16.25616,-0.12461 z m 31.79448,-2.65342 c 0.43677,-0.39528 0.45818,-1.2646 0.45818,-18.61282 0,-16.58383 -0.0366,-18.23861 -0.41248,-18.65396 -0.39128,-0.43235 -1.21795,-0.45579 -16.07563,-0.45579 -14.85227,0 -15.68678,0.0237 -16.11975,0.45662 -0.43344,0.43344 -0.45883,1.37281 -0.49997,18.50566 -0.0238,9.92698 0.0414,18.17079 0.14507,18.31958 0.55269,0.79355 1.25551,0.82917 16.61588,0.84223 14.05236,0.012 15.47144,-0.0239 15.8887,-0.40152 z m -22.34328,-9.30418 c -0.20355,-0.32934 -0.21344,-18.60779 -0.0103,-18.93656 0.24139,-0.39056 12.15071,-0.3536 12.54325,0.0389 0.39158,0.39157 0.4302,17.93204 0.0411,18.65911 -0.24426,0.45642 -0.58199,0.4821 -6.34077,0.4821 -3.69218,0 -6.14193,-0.0957 -6.2333,-0.24358 z m 11.77848,-5.43216 c 0.0525,-3.51336 -0.005,-4.57834 -0.24924,-4.65988 -0.48066,-0.16016 -7.41301,-0.31385 -8.47962,-0.18798 l -0.93463,0.11029 v 4.71357 4.71357 l 4.79777,-0.0677 4.79776,-0.0677 z m 11.77068,-15.50919 c 0,-0.13708 -0.0495,-0.24924 -0.10991,-0.24924 -0.0605,0 -0.17922,0.11216 -0.26394,0.24924 -0.0847,0.13707 -0.0352,0.24924 0.1099,0.24924 0.14517,0 0.26395,-0.11217 0.26395,-0.24924 z"
       id="path11" /></g></svg>
